<?xml version="1.0" encoding="UTF-8"?>
<!DOCTYPE svg PUBLIC "-//W3C//DTD SVG 1.1//EN" "http://www.w3.org/Graphics/SVG/1.1/DTD/svg11.dtd">
<!-- Creator: CorelDRAW 2020 (64-Bit) -->
<svg xmlns="http://www.w3.org/2000/svg" xml:space="preserve" width="177.729mm" height="177.716mm" version="1.1" style="shape-rendering:geometricPrecision; text-rendering:geometricPrecision; image-rendering:optimizeQuality; fill-rule:evenodd; clip-rule:evenodd"
viewBox="0 0 5830.02 5829.58"
 xmlns:xlink="http://www.w3.org/1999/xlink"
 xmlns:xodm="http://www.corel.com/coreldraw/odm/2003">
 <defs>
  <style type="text/css">
   <![CDATA[
    .str0 {stroke:#A98F71;stroke-width:92.58;stroke-miterlimit:22.9256}
    .fil2 {fill:#A98F71}
    .fil3 {fill:#E8D4B4}
    .fil0 {fill:#E3C9A3}
    .fil1 {fill:white}
   ]]>
  </style>
 </defs>
 <g id="Layer_x0020_1">
  <metadata id="CorelCorpID_0Corel-Layer"/>
  <path class="fil0 str0" d="M1179.18 58.55c-432.01,50.99 -721.21,281.24 -899.53,530.49 -259.7,362.99 -228.63,696.05 -228.63,1208.95 0,260.39 -14.9,2668.51 8.2,2861.55 49.96,417.44 288.72,724.41 534.23,892.38 388.92,266.07 677.26,226.55 1207.71,226.55 261.34,0 2668.64,15.12 2862.67,-8.19 417.08,-50.11 725.64,-292.7 888.07,-534 267.31,-397.11 227.15,-671.23 227.15,-1204.87 0,-257.47 14.47,-2670.29 -7.55,-2860.1 -51.09,-440.32 -288.22,-712.29 -531.02,-891.74 -351.02,-259.44 -711.17,-228.6 -1205.91,-228.6 -254.49,0 -2668.19,-14.51 -2855.4,7.58z"/>
  <path class="fil1" d="M1934.81 975.06c-507.16,73.93 -914.91,461.22 -964.04,985.66 -25.3,270.09 -5.87,1091.71 -5.87,1457.37 0,153.52 -10.14,342.72 10.86,491.87 70.04,497.44 475.59,900.74 989.75,949.63 284.72,27.07 673.95,5.46 969.72,5.46 280.66,0 712.06,24.81 973.02,-10.79 496.75,-67.77 902.93,-474.94 952.02,-995.17 26.43,-280.09 5.02,-668.84 5.02,-961.75 0,-280 25.08,-710.17 -10.15,-971.46 -68.01,-504.43 -475.72,-903.72 -985.18,-954.97 -256.8,-25.83 -1097.84,-6.42 -1455.46,-6.42 -148.88,0 -338.03,-10.08 -479.68,10.57z"/>
  <path class="fil2" d="M1958 1311.19c-257.49,45.1 -391.11,159.3 -503.23,302.46 -146.94,187.62 -155.1,374.61 -155.1,658.79 0,266.99 -16.97,1446.9 12.12,1612.11 42.72,242.56 170.97,390.84 305.61,492.24 196.23,147.8 365.99,152.89 658.22,152.89 270.42,0 1439.71,16.85 1609.9,-11.87 236.39,-39.9 386.92,-169.09 492.18,-304.67 147.38,-189.85 151.99,-375.42 151.99,-656.19 0,-265.18 16.26,-1443.86 -10.24,-1606.91 -36.91,-227.11 -172.57,-400.85 -302.61,-496.36 -201.07,-147.67 -363.66,-153.84 -656.71,-153.84 -261.29,0 -1442.28,-16.65 -1602.13,11.35z"/>
  <path class="fil1" d="M2810.93 1922.47c-518.1,61.55 -956.07,510.82 -888.36,1106.61 58.76,516.92 526.38,947.07 1112.01,877.85 502.66,-59.42 940.62,-520.86 873.23,-1102.9 -58.74,-507.33 -518.34,-950.28 -1096.89,-881.55z"/>
  <path class="fil3" d="M2844.24 2256.52c-343.92,40.49 -630.9,338.46 -587.9,733.16 36.55,335.48 344.77,626.97 731.85,584.2 338.06,-37.35 630.24,-345.02 585.63,-734.75 -38.41,-335.55 -344.19,-627.98 -729.57,-582.61z"/>
  <path class="fil1" d="M3877.24 1635.57c-318.08,126.18 -117.95,558.05 166.07,449.04 289.8,-111.23 124.1,-564.14 -166.07,-449.04z"/>
 </g>
</svg>
