<?xml version="1.0" encoding="UTF-8"?>
<!DOCTYPE svg PUBLIC "-//W3C//DTD SVG 1.1//EN" "http://www.w3.org/Graphics/SVG/1.1/DTD/svg11.dtd">
<!-- Creator: CorelDRAW 2020 (64-Bit) -->
<svg xmlns="http://www.w3.org/2000/svg" xml:space="preserve" width="177.658mm" height="177.713mm" version="1.1" style="shape-rendering:geometricPrecision; text-rendering:geometricPrecision; image-rendering:optimizeQuality; fill-rule:evenodd; clip-rule:evenodd"
viewBox="0 0 2275.82 2276.53"
 xmlns:xlink="http://www.w3.org/1999/xlink"
 xmlns:xodm="http://www.corel.com/coreldraw/odm/2003">
 <defs>
  <style type="text/css">
   <![CDATA[
    .str0 {stroke:#A98F71;stroke-width:36.15;stroke-miterlimit:22.9256}
    .fil2 {fill:#A98F71}
    .fil0 {fill:#E3C9A3}
    .fil1 {fill:white}
   ]]>
  </style>
 </defs>
 <g id="Layer_x0020_1">
  <metadata id="CorelCorpID_0Corel-Layer"/>
  <path class="fil0 str0" d="M457.57 23.2c-170.71,21.6 -280.67,110.16 -349.42,208.88 -103.14,148.13 -88.32,268.81 -88.32,470.14 0,107.01 -5.69,1034.37 3.41,1115.99 18.98,170.25 110.44,278.99 206.55,348.74 141.47,102.68 273.46,89.73 470.49,89.73 102.1,0 1040.42,5.48 1116.33,-2.86 164.87,-18.12 283.72,-112.28 350.08,-207.16 102.39,-146.39 89.26,-269.28 89.26,-472.25 0,-105.55 5.74,-1039.84 -3.24,-1119.34 -18.43,-163.21 -113.88,-280.87 -208.23,-346.87 -144.75,-101.26 -271.15,-88.24 -472,-88.24 -98.83,0 -1042.32,-5.96 -1114.9,3.23z"/>
  <path class="fil1" d="M465.9 1777.14l336.07 -105.74c54.06,-18.55 65.07,25.79 201.95,56.08 228.32,50.52 417.6,-20.98 558.31,-127.24 308.35,-232.85 333.41,-711.06 49.23,-982.2 -282.21,-269.26 -748.16,-242.38 -988.18,74.93 -137.77,182.13 -183.59,448.93 -65.6,685.23 33.16,66.42 30.01,35.97 -1.23,129.29 -28.63,85.52 -68.29,184.55 -90.55,269.65z"/>
  <path class="fil2" d="M634.15 1613.55c36.36,-6.44 195.61,-68.58 215.63,-61.74 28.5,9.74 84.63,60.66 213.08,80.5 490.87,75.82 818.32,-476.1 542.57,-859.12 -34.63,-48.1 -36.06,-43.67 -69.12,-80.01 -93.09,-102.3 -275.42,-166.74 -429.46,-154.2 -398.44,32.45 -663.03,472.91 -414.94,858.74 14.2,22.09 -7.25,60.8 -22.14,105.62 -9.91,29.84 -31.49,83.9 -35.63,110.21z"/>
  <path class="fil1" d="M913.65 791.37c-65.3,20.07 -114.29,131.59 -63.15,244.33 33.66,74.22 101.8,156.86 150.13,202.24 69.05,64.83 111.11,92.83 220.09,132.24 48.37,17.49 87.73,32.41 143.39,22.18 42.41,-7.79 89.47,-37.58 106.6,-68.72 8.99,-16.34 17.09,-46.62 15.45,-70.03 -1.8,-25.85 -25.45,-30 -48.85,-41.26 -21.17,-10.19 -101.01,-55.99 -122.56,-44.84 -49.93,25.84 -31.22,149.88 -203.29,13.66 -33.04,-26.16 -60.74,-54.71 -86.45,-89.65 -48.91,-66.46 -28.63,-53.64 9.44,-104.78 18.73,-25.16 18.59,-34.83 5.55,-63.95 -9.77,-21.83 -17.87,-43.31 -26.28,-63.63 -5.92,-14.3 -18.9,-49.3 -27.22,-59.19 -10.68,-12.7 -51.58,-15.12 -72.86,-8.58z"/>
 </g>
</svg>
